<svg width="49" height="36" viewBox="0 0 49 36" fill="none" xmlns="http://www.w3.org/2000/svg">
<path d="M6.22165 10.9731C6.22165 10.9731 4.71385 12.1087 2.70678 13.7768C0.699703 15.4449 1.3887 18.0073 3.31589 20.208C5.93207 23.2025 8.14884 24.8505 13.521 25.8353C17.1357 26.4986 18.5037 26.5689 20.9502 28.4581L22.458 29.8348C23.7461 31.3923 27.6105 34.005 30.0469 34.005C32.4834 34.005 38.4147 34.005 39.7028 34.005C42.6186 34.005 44.366 31.9149 45.4145 30.2568C45.8039 29.6438 46.473 28.3978 46.9223 27.1015" stroke="#22222C" stroke-width="2" stroke-miterlimit="10"/>
<path d="M7.04045 8.87303C6.58112 9.5664 6.14176 10.7622 6.03193 11.6666C5.57259 15.3043 11.1045 19.2434 13.4811 20.1076C16.8362 21.3235 20.1314 20.7005 23.2868 24.5592C26.4422 28.418 30.686 29.9755 35.449 29.9755C40.2121 29.9755 44.0864 30.0157 46.0036 28.4783C47.2219 27.2724 48.2004 24.0869 46.8424 23.5443C45.1349 22.861 40.9111 21.9566 38.5146 21.3637C36.807 19.1329 30.5262 9.75732 29.5277 7.36571C28.7488 5.50668 27.8301 5.3057 26.1426 5.92873C24.6348 6.49146 21.779 7.8179 18.9231 5.45643C16.0673 3.09496 18.3939 1.36657 16.5566 1.14549C14.7292 0.924421 14.2 0.803835 12.7022 2.17047C11.5139 3.25574 7.49978 8.18971 7.04045 8.87303Z" stroke="#22222C" stroke-width="2" stroke-miterlimit="10"/>
<path d="M32.4534 7.86816L26.4621 10.8828" stroke="#22222C" stroke-width="2" stroke-miterlimit="10"/>
<path d="M34.4505 10.8828L28.4592 13.8975" stroke="#22222C" stroke-width="2" stroke-miterlimit="10"/>
<path d="M36.4476 13.8975L30.4563 16.9121" stroke="#22222C" stroke-width="2" stroke-miterlimit="10"/>
<path d="M38.4447 16.9121L32.4534 19.9268" stroke="#22222C" stroke-width="2" stroke-miterlimit="10"/>
</svg>
